<svg xmlns="http://www.w3.org/2000/svg" viewBox="0 0 340 340"><g data-name="Layer 27"><path d="m170.13 33.023 33.208 14.69a.922.922 0 0 1-.145 1.737L170.13 57.9z" style="fill:#ff6d8d"/><path style="fill:#dd6c6c" d="M321.003 193.861v75.195h-87.057v-77.564l87.057 2.369z"/><path d="m329.321 179.043-7.593-39.343a10.911 10.911 0 0 0-10.714-8.844h-44.9l1.04 56.336z" style="fill:#8989a3"/><path transform="rotate(180 296.162 229.069)" style="fill:#b95252" d="M286.689 217.944h18.946v22.249h-18.946z"/><path transform="rotate(180 263.669 229.069)" style="fill:#b95252" d="M254.196 217.944h18.946v22.249h-18.946z"/><path style="fill:#dd6c6c" d="M19.683 192.656v75.195h87.057v-77.564l-87.057 2.369z"/><path d="m10.679 179.043 7.593-39.343a10.911 10.911 0 0 1 10.714-8.844h44.721l-1.483 54.366z" style="fill:#8989a3"/><path style="fill:#b95252" d="M34.365 217.944h18.946v22.249H34.365zM66.858 217.944h18.946v22.249H66.858z"/><path d="M329.321 179.043h-44.684a11.9 11.9 0 0 1-11.718-9.822l-6.806-38.37h-29.592v64.964h96.036zM55.182 179.043h-44.5l-3.239 16.772h96.036v-64.964H73.707l-6.807 38.37a11.9 11.9 0 0 1-11.718 9.822z" style="fill:#797996"/><path style="fill:#fe8f89" d="M99.351 166.257h141.118v107.376H99.351z"/><path d="M13.092 260.838h104.133v23.327a10.163 10.163 0 0 1-10.163 10.163H23.255a10.163 10.163 0 0 1-10.163-10.163v-23.327z" transform="rotate(180 65.158 277.584)" style="fill:#95d39a"/><path d="M238.647 99.192H101.173a10.911 10.911 0 0 0-10.737 8.969l-8.869 49 30.045 7.334 113.638.131 33-7.465-8.868-49a10.912 10.912 0 0 0-10.735-8.969z" style="fill:#8989a3"/><path style="fill:#797996" d="M224.841 169.158h35.583l-2.171-11.999h-53.291l19.879 11.999zM135.673 157.159H81.567l-2.172 11.999h35.584l20.694-11.999z"/><path style="fill:#fe8f89" d="m169.91 92.545-61.084 76.613h122.167L169.91 92.545z"/><path d="m167.617 73.931-69.2 95.227h16.564l54.929-76.613 54.931 76.613h16.564L172.2 73.931a2.834 2.834 0 0 0-4.583 0z" style="fill:#797996"/><circle cx="169.91" cy="142.34" r="18.127" style="fill:#fff"/><path d="M190.517 273.633H173.41c-1.509-1.12-4.17-.676-7 0H149.3v-42.814h17.11a6.379 6.379 0 0 0 7 0h17.107z" style="fill:#dd6c6c"/><path style="fill:#8989a3" d="M139.507 273.633h60.806v9.304h-60.806z"/><path style="fill:#dd6c6c" d="M122.881 190.287h18.946v22.249h-18.946zM160.437 190.287h18.946v22.249h-18.946zM197.992 190.287h18.946v22.249h-18.946z"/><path d="M232.938 260.838h83.807A10.163 10.163 0 0 1 326.908 271v23.327H222.775V271a10.163 10.163 0 0 1 10.163-10.162z" style="fill:#95d39a"/><path style="fill:#797996" d="M139.507 282.318h60.806v8.685h-60.806z"/><path style="fill:#8989a3" d="M129.249 291.003h81.321v17.37h-81.321z"/><path style="fill:#af3f3f" d="M166.41 230.819h7v42.814h-7z"/><path d="M176.646 145.34h-6.736a3 3 0 0 1-3-3v-7.119a3 3 0 0 1 6 0v4.119h3.736a3 3 0 0 1 0 6z" style="fill:#797996"/><path d="M325.164 139.033a14.434 14.434 0 0 0-14.15-11.682h-54.6l-3.586-19.813a14.4 14.4 0 0 0-14.182-11.846h-46.3L173.41 69.639V59.226l33.009-8.44a3.5 3.5 0 0 0 .549-6.592l-35.642-15.767a3.5 3.5 0 0 0-4.916 3.2v38.012l-18.934 26.053h-46.3a14.4 14.4 0 0 0-14.181 11.846l-3.586 19.813H28.986a14.434 14.434 0 0 0-14.15 11.682l-10.83 56.118a3.5 3.5 0 0 0 3.437 4.163h8.74v60.019A13.653 13.653 0 0 0 9.592 271v23.327a3.5 3.5 0 0 0 3.5 3.5h104.133a3.5 3.5 0 0 0 3.5-3.5v-17.194h15.282V287.5h-6.757a3.5 3.5 0 0 0-3.5 3.5v17.37a3.5 3.5 0 0 0 3.5 3.5h81.32a3.5 3.5 0 0 0 3.5-3.5V291a3.5 3.5 0 0 0-3.5-3.5h-6.758v-10.37h15.463v17.195a3.5 3.5 0 0 0 3.5 3.5h104.133a3.5 3.5 0 0 0 3.5-3.5V271a13.653 13.653 0 0 0-6.591-11.668v-60.018h8.74a3.5 3.5 0 0 0 3.437-4.163zM173.41 37l21.485 9.5L173.41 52zm65.236 65.688a7.408 7.408 0 0 1 7.294 6.092l10.294 56.873h-13.046l-45.758-62.961zm5.323 96.622h72.848v58.027h-72.848zM169.91 76.73l64.625 88.927h-7.9l-53.885-75.15a3.5 3.5 0 0 0-5.689 0l-53.884 75.15h-7.9zm48.115 88.927h-96.231l48.116-67.1zM93.879 108.784a7.41 7.41 0 0 1 7.294-6.092h41.216l-45.757 62.965H83.586zm-82.2 83.53 10.026-51.955a7.423 7.423 0 0 1 7.277-6.008h53.157l-6.187 34.183a3.5 3.5 0 0 0 3.444 4.123h16.455v19.657zm84.168 7v58.024H23.175v-58.024zm17.874 91.514H16.592V271a6.671 6.671 0 0 1 6.663-6.663h83.807a6.671 6.671 0 0 1 6.663 6.663zm93.349 3.672v10.37h-74.32V294.5zm-10.258-17.37v10.37h-53.805v-10.37zm-44.01-7v-35.811h13.608v35.814zm20.608 0v-35.811h13.607v35.814zm45.909 0h-25.3v-39.311a3.5 3.5 0 0 0-3.5-3.5H149.3a3.5 3.5 0 0 0-3.5 3.5v39.314h-25.119a13.668 13.668 0 0 0-13.619-12.795h-4.211v-84.681h134.118v84.681h-4.031a13.668 13.668 0 0 0-13.619 12.795zm104.089 20.695h-97.133V271a6.671 6.671 0 0 1 6.663-6.663h83.807a6.671 6.671 0 0 1 6.663 6.663zm-79.439-98.514v-19.654h16.455a3.5 3.5 0 0 0 3.444-4.123l-6.187-34.183h53.333a7.423 7.423 0 0 1 7.277 6.008l10.026 51.955z" style="fill:#3c3c4f"/><path d="M305.635 214.444h-18.946a3.5 3.5 0 0 0-3.5 3.5v22.249a3.5 3.5 0 0 0 3.5 3.5h18.946a3.5 3.5 0 0 0 3.5-3.5v-22.249a3.5 3.5 0 0 0-3.5-3.5zm-3.5 22.249h-11.946v-15.249h11.946zM273.142 214.444H254.2a3.5 3.5 0 0 0-3.5 3.5v22.249a3.5 3.5 0 0 0 3.5 3.5h18.946a3.5 3.5 0 0 0 3.5-3.5v-22.249a3.5 3.5 0 0 0-3.504-3.5zm-3.5 22.249H257.7v-15.249h11.946zM149.311 142.34a20.6 20.6 0 1 0 20.6-20.6 20.622 20.622 0 0 0-20.6 20.6zm34.2 0a13.6 13.6 0 1 1-13.6-13.6 13.614 13.614 0 0 1 13.598 13.6zM141.828 186.787h-18.947a3.5 3.5 0 0 0-3.5 3.5v22.249a3.5 3.5 0 0 0 3.5 3.5h18.947a3.5 3.5 0 0 0 3.5-3.5v-22.249a3.5 3.5 0 0 0-3.5-3.5zm-3.5 22.249h-11.947v-15.249h11.947zM34.365 243.693h18.946a3.5 3.5 0 0 0 3.5-3.5v-22.249a3.5 3.5 0 0 0-3.5-3.5H34.365a3.5 3.5 0 0 0-3.5 3.5v22.249a3.5 3.5 0 0 0 3.5 3.5zm3.5-22.249h11.946v15.249H37.865zM66.858 243.693H85.8a3.5 3.5 0 0 0 3.5-3.5v-22.249a3.5 3.5 0 0 0-3.5-3.5H66.858a3.5 3.5 0 0 0-3.5 3.5v22.249a3.5 3.5 0 0 0 3.5 3.5zm3.5-22.249H82.3v15.249H70.358zM179.383 186.787h-18.946a3.5 3.5 0 0 0-3.5 3.5v22.249a3.5 3.5 0 0 0 3.5 3.5h18.946a3.5 3.5 0 0 0 3.5-3.5v-22.249a3.5 3.5 0 0 0-3.5-3.5zm-3.5 22.249h-11.946v-15.249h11.946zM216.938 186.787h-18.946a3.5 3.5 0 0 0-3.5 3.5v22.249a3.5 3.5 0 0 0 3.5 3.5h18.946a3.5 3.5 0 0 0 3.5-3.5v-22.249a3.5 3.5 0 0 0-3.5-3.5zm-3.5 22.249h-11.946v-15.249h11.946z" style="fill:#3c3c4f"/></g></svg>